<svg xmlns="http://www.w3.org/2000/svg" xmlns:xlink="http://www.w3.org/1999/xlink" viewBox="0 0 318 318"><defs><style>.cls-1{fill:#fff;}.cls-2{fill:#231815;}.cls-3{fill:url(#未命名漸層_12);}.cls-4{fill:#2da9d5;}</style><linearGradient id="未命名漸層_12" x1="64.36" y1="115.59" x2="190.55" y2="115.59" gradientUnits="userSpaceOnUse"><stop offset="0" stop-color="#dbebc6"/><stop offset="0.5" stop-color="#9bd1b1"/><stop offset="1" stop-color="#6dc1a3"/></linearGradient></defs><title>logo</title><g id="圖層_2" data-name="圖層 2"><g id="圖層_1-2" data-name="圖層 1"><circle class="cls-1" cx="159" cy="159" r="159"/><path class="cls-2" d="M166.74,111.51h86.9v9H242.42q-6.64,0-9.47,2.41t-2.83,7V245.66A44.63,44.63,0,0,1,204.54,287a62,62,0,0,1-28.35,6.33q-21.47,0-35.1-12.61t-13.63-30.82q0-13.51,6.88-21.59t16.89-8.08a18.42,18.42,0,0,1,13.51,5.25A18,18,0,0,1,170,238.78a16.81,16.81,0,0,1-4.34,11.76,13.21,13.21,0,0,1-10,4.77,21.78,21.78,0,0,1-6-1.21,19.67,19.67,0,0,0-4.34-1,3.8,3.8,0,0,0-3.26,1.69,8.11,8.11,0,0,0-1.33,5.07q0,9,9.11,16.47t22.38,7.42q15.08,0,23.77-10.43t8.69-29.13V130q0-4.7-3.2-7.06t-10.92-2.35H166.74Z"/><path class="cls-3" d="M111.65,24.69h78.9v9H179.33q-6.64,0-9.47,2.41t-2.83,7V158.84a44.63,44.63,0,0,1-25.57,41.32,62,62,0,0,1-28.35,6.33q-21.47,0-35.1-12.61T64.36,163.06q0-13.51,6.88-21.59t16.89-8.08a18.42,18.42,0,0,1,13.51,5.25A18,18,0,0,1,106.95,152a16.81,16.81,0,0,1-4.34,11.76,13.21,13.21,0,0,1-10,4.77,21.78,21.78,0,0,1-6-1.21,19.67,19.67,0,0,0-4.34-1A3.8,3.8,0,0,0,79,168a8.11,8.11,0,0,0-1.33,5.07q0,9,9.11,16.47T109.12,197q15.08,0,23.77-10.43t8.69-29.13V43.15q0-4.7-3.2-7.06t-10.92-2.35h-15.8Z"/><path class="cls-4" d="M166.74,111.51h86.9v9H242.42q-6.64,0-9.47,2.41t-2.83,7V245.66A44.63,44.63,0,0,1,204.54,287a62,62,0,0,1-28.35,6.33q-21.47,0-35.1-12.61t-13.63-30.82q0-13.51,6.88-21.59t16.89-8.08a18.42,18.42,0,0,1,13.51,5.25A18,18,0,0,1,170,238.78a16.81,16.81,0,0,1-4.34,11.76,13.21,13.21,0,0,1-10,4.77,21.78,21.78,0,0,1-6-1.21,19.67,19.67,0,0,0-4.34-1,3.8,3.8,0,0,0-3.26,1.69,8.11,8.11,0,0,0-1.33,5.07q0,9,9.11,16.47t22.38,7.42q15.08,0,23.77-10.43t8.69-29.13V130q0-4.7-3.2-7.06t-10.92-2.35H166.74Z"/><path class="cls-4" d="M111.65,24.69h78.9v9H179.33q-6.64,0-9.47,2.41t-2.83,7V158.84a44.63,44.63,0,0,1-25.57,41.32,62,62,0,0,1-28.35,6.33q-21.47,0-35.1-12.61T64.36,163.06q0-13.51,6.88-21.59t16.89-8.08a18.42,18.42,0,0,1,13.51,5.25A18,18,0,0,1,106.95,152a16.81,16.81,0,0,1-4.34,11.76,13.21,13.21,0,0,1-10,4.77,21.78,21.78,0,0,1-6-1.21,19.67,19.67,0,0,0-4.34-1A3.8,3.8,0,0,0,79,168a8.11,8.11,0,0,0-1.33,5.07q0,9,9.11,16.47T109.12,197q15.08,0,23.77-10.43t8.69-29.13V43.15q0-4.7-3.2-7.06t-10.92-2.35h-15.8Z"/></g></g></svg>